<svg width="33" height="33" viewBox="0 0 33 33" fill="none" xmlns="http://www.w3.org/2000/svg">
<g clip-path="url(#clip0_5389_37136)">
<path d="M16.3917 0C7.33842 0 0 7.33842 0 16.3917C0 25.445 7.33842 32.7834 16.3917 32.7834C25.445 32.7834 32.7834 25.445 32.7834 16.3917C32.7834 7.33842 25.445 0 16.3917 0ZM24.897 24.7807C24.079 24.7807 23.7242 24.9522 23.2354 25.1887C22.6657 25.4647 21.9542 25.8096 20.6493 25.8096C19.3444 25.8096 18.6348 25.4647 18.0632 25.1887C17.5744 24.9522 17.2196 24.7807 16.4016 24.7807C15.5836 24.7807 15.2307 24.9522 14.7399 25.1887C14.1703 25.4647 13.4587 25.8096 12.1538 25.8096C10.849 25.8096 10.1394 25.4647 9.56774 25.1887C9.07891 24.9522 8.72411 24.7807 7.9061 24.7807V22.6638C9.21097 22.6638 9.92057 23.0087 10.4922 23.2847C10.981 23.5212 11.3358 23.6927 12.1538 23.6927C12.9718 23.6927 13.3266 23.5212 13.8155 23.2847C14.3851 23.0087 15.0967 22.6638 16.4016 22.6638C17.7064 22.6638 18.416 23.0087 18.9877 23.2847C19.4765 23.5212 19.8313 23.6927 20.6493 23.6927C21.4673 23.6927 21.8221 23.5212 22.3109 23.2847C22.8806 23.0087 23.5922 22.6638 24.897 22.6638V24.7807ZM24.897 18.489H21.0987C19.5277 18.489 18.2505 19.7662 18.2505 21.3372H14.5743C14.5743 19.7662 13.2971 18.489 11.7261 18.489H7.92778V16.573H11.7261C14.0638 16.573 16.0113 18.2643 16.4114 20.4877C16.8135 18.2643 18.761 16.573 21.0967 16.573H24.8951V18.489H24.897ZM24.897 15.2248H7.90807V13.3444H12.4318C13.0605 13.3444 13.3739 12.5855 12.9304 12.14L9.73134 8.94093L11.0599 7.61241L14.257 10.8115C14.7005 11.255 15.4613 10.9416 15.4613 10.3128V5.78913H17.3418V10.3128C17.3418 10.9416 18.1007 11.255 18.5461 10.8115L21.7452 7.61241L23.0737 8.94093L19.8746 12.14C19.4311 12.5835 19.7446 13.3444 20.3733 13.3444H24.897V15.2248Z" fill="#483A2A"/>
</g>
<defs>
<clipPath id="clip0_5389_37136">
<rect width="32.7854" height="32.7854" fill="white"/>
</clipPath>
</defs>
</svg>
