<svg width="658" height="121" viewBox="0 0 658 121" fill="none" xmlns="http://www.w3.org/2000/svg">
<path d="M54.5 0C24.3992 0 0 24.3992 0 54.5C0 84.6008 24.3992 109 54.5 109C84.6008 109 109 84.6008 109 54.5C109 24.3992 84.6008 0 54.5 0ZM86.9536 81.4485H72.4438C66.4407 81.4485 61.5648 86.331 61.5648 92.3341H47.5204C47.5204 86.331 42.6379 81.4485 36.6348 81.4485H22.1251V74.1347H36.6348C45.5608 74.1347 53.0058 80.5966 54.5393 89.0901C56.0729 80.5966 63.5178 74.1347 72.4438 74.1347H86.9536V81.4485ZM22.053 65.5035V57.4164C27.0403 57.4164 29.7535 58.7337 31.9293 59.7888C33.7971 60.6932 35.1471 61.3485 38.2732 61.3485C41.3993 61.3485 42.7493 60.6932 44.6171 59.7888C46.7995 58.7337 49.5061 57.4164 54.4934 57.4164C59.4808 57.4164 62.194 58.7337 64.3698 59.7888C66.2376 60.6932 67.5876 61.3485 70.7202 61.3485C73.8529 61.3485 75.1964 60.6932 77.0707 59.7888C79.2531 58.7337 81.9663 57.4164 86.947 57.4164V65.5035C83.8209 65.5035 82.4709 66.1589 80.5966 67.0633C78.4142 68.1184 75.701 69.4357 70.7202 69.4357C65.7395 69.4357 63.0197 68.1184 60.8374 67.0633C58.9696 66.1589 57.6195 65.5035 54.4869 65.5035C51.3543 65.5035 50.0108 66.1589 48.143 67.0633C45.9606 68.1184 43.2474 69.4357 38.2667 69.4357C33.2859 69.4357 30.5661 68.1184 28.3903 67.0633C26.5225 66.1589 25.1725 65.5035 22.0464 65.5035H22.053ZM86.9536 52.7174H22.053V45.5346H39.3349C41.7335 45.5346 42.9328 42.6314 41.242 40.934L29.026 28.7115L34.1051 23.6324L46.3211 35.8484C48.0185 37.5458 50.9217 36.3464 50.9217 33.9413V16.6593H58.1045V33.9413C58.1045 36.3399 61.0078 37.5392 62.7051 35.8484L74.9211 23.6258L80.0002 28.7049L67.7842 40.9274C66.0868 42.6248 67.2861 45.5281 69.6913 45.5281H86.9732V52.7109L86.9536 52.7174Z" fill="#4B3928"/>
<path fill-rule="evenodd" clip-rule="evenodd" d="M389.931 74.3965C392.511 74.3965 394.761 75.0745 396.674 76.4346C397.933 77.3104 399.002 78.4153 399.888 79.7461V75.1484H407.269V103.379L407.261 104.042C407.182 107.326 406.511 110.14 405.242 112.479L405.243 112.48C403.891 115.015 401.987 116.92 399.532 118.189L399.533 118.19C397.082 119.501 394.234 120.152 390.995 120.152C388.773 120.152 386.757 119.964 384.947 119.585C383.407 119.255 382.071 118.876 380.941 118.447L380.47 118.261C379.406 117.82 378.544 117.393 377.888 116.979L377.619 116.802L377.489 116.713L377.557 116.57L380.33 110.767L380.498 110.851C380.788 110.996 381.125 111.157 381.51 111.334L382.805 111.911L382.809 111.912C383.674 112.309 384.668 112.66 385.792 112.964L386.282 113.091C387.6 113.42 389.087 113.586 390.744 113.586C392.512 113.586 394.089 113.216 395.479 112.48L395.482 112.479C396.864 111.787 397.943 110.71 398.72 109.239C399.494 107.771 399.888 105.884 399.888 103.566V101.101C399.001 102.371 397.93 103.433 396.67 104.282L396.669 104.283C394.757 105.558 392.508 106.192 389.931 106.192C387.243 106.192 384.863 105.617 382.795 104.463L382.386 104.225L382.384 104.224C380.4 102.994 378.808 101.318 377.607 99.1992L377.372 98.7695L377.37 98.7656C376.187 96.399 375.599 93.6778 375.599 90.6074C375.599 87.3304 376.187 84.4844 377.37 82.0752L377.371 82.0723C378.595 79.6666 380.265 77.7842 382.382 76.4297L382.383 76.4287C384.544 75.0725 387.063 74.3965 389.931 74.3965ZM395.024 112.907C394.933 112.948 394.84 112.988 394.747 113.026L395.024 112.907C395.116 112.866 395.207 112.824 395.297 112.78L395.024 112.907ZM398.581 109.854C398.495 109.992 398.405 110.126 398.313 110.257C398.402 110.131 398.489 110.003 398.571 109.87L398.581 109.854ZM399.938 105.775C399.944 105.729 399.95 105.682 399.956 105.635L399.967 105.538C399.958 105.618 399.948 105.697 399.938 105.775ZM400.046 104.543C400.048 104.503 400.052 104.463 400.054 104.423L400.055 104.397C400.053 104.446 400.048 104.495 400.046 104.543ZM391.809 80.9639C390.172 80.9639 388.725 81.3718 387.464 82.1855L387.463 82.1865C386.242 82.9601 385.261 84.0613 384.523 85.4961C383.83 86.8842 383.479 88.5237 383.479 90.4199L383.483 90.7646C383.524 92.4761 383.872 94.0006 384.522 95.3418C385.26 96.7339 386.26 97.8365 387.526 98.6533C388.788 99.4671 390.234 99.8759 391.871 99.876C393.423 99.876 394.762 99.4682 395.896 98.6582L395.898 98.6562C397.08 97.8413 397.999 96.741 398.653 95.3496C399.308 93.9171 399.638 92.2752 399.638 90.4199C399.638 88.6401 399.347 87.0861 398.772 85.7539L398.653 85.4902L398.652 85.4883C398.038 84.1452 397.194 83.0959 396.12 82.334L395.902 82.1855L395.898 82.1826C394.721 81.3709 393.36 80.9639 391.809 80.9639ZM385.143 96.6729C385.289 96.8698 385.444 97.0581 385.604 97.2402C385.507 97.1298 385.412 97.0173 385.319 96.9014C385.26 96.8264 385.2 96.7501 385.143 96.6729ZM383.361 91.7891C383.366 91.8391 383.372 91.8888 383.378 91.9385C383.37 91.8681 383.362 91.7976 383.355 91.7266L383.361 91.7891ZM389.445 81.0918C388.982 81.2222 388.538 81.3935 388.111 81.6055C388.282 81.5207 388.455 81.4428 388.632 81.3711C388.896 81.2635 389.168 81.1701 389.445 81.0918Z" fill="#4B3928"/>
<path fill-rule="evenodd" clip-rule="evenodd" d="M479.912 74.3965C482.491 74.3965 484.741 75.0742 486.653 76.4336C487.912 77.3096 488.984 78.4149 489.869 79.7461V75.1484H497.249V103.379L497.241 104.042C497.162 107.326 496.492 110.14 495.224 112.479C493.872 115.015 491.968 116.919 489.514 118.189C487.062 119.5 484.215 120.152 480.977 120.152C479.032 120.152 477.245 120.008 475.617 119.719L474.929 119.585C473.389 119.255 472.052 118.876 470.923 118.447L470.451 118.261C469.235 117.758 468.282 117.271 467.6 116.802L467.471 116.713L467.538 116.57L470.23 110.937L470.311 110.767L470.479 110.851C470.769 110.996 471.106 111.157 471.49 111.334L472.786 111.911L472.79 111.912C473.655 112.309 474.649 112.66 475.773 112.964L476.264 113.091C477.582 113.42 479.068 113.586 480.726 113.586C482.494 113.586 484.071 113.216 485.46 112.48L485.464 112.479C486.846 111.787 487.925 110.71 488.701 109.239C489.476 107.771 489.869 105.884 489.869 103.566V101.101C488.983 102.371 487.911 103.433 486.651 104.282L486.65 104.283C484.738 105.558 482.49 106.192 479.912 106.192C477.045 106.192 474.527 105.538 472.366 104.225L472.365 104.224C470.381 102.994 468.789 101.318 467.589 99.1992L467.354 98.7695L467.352 98.7656C466.168 96.399 465.579 93.6779 465.579 90.6074C465.579 87.3303 466.168 84.4845 467.352 82.0752L467.353 82.0723C468.577 79.6666 470.247 77.7842 472.363 76.4297L472.364 76.4287C474.526 75.0725 477.044 74.3965 479.912 74.3965ZM489.919 105.775C489.925 105.729 489.932 105.682 489.938 105.635L489.948 105.538C489.939 105.618 489.929 105.697 489.919 105.775ZM490.027 104.543C490.029 104.503 490.033 104.463 490.035 104.423L490.036 104.397C490.034 104.446 490.03 104.495 490.027 104.543ZM481.79 80.9639C480.153 80.9639 478.707 81.3718 477.445 82.1855L477.444 82.1865C476.223 82.9601 475.242 84.0613 474.504 85.4961C473.81 86.8842 473.461 88.5238 473.461 90.4199L473.465 90.7646C473.506 92.4759 473.853 94.0007 474.503 95.3418C475.24 96.7341 476.242 97.8365 477.508 98.6533C478.769 99.4671 480.216 99.876 481.853 99.876C483.404 99.876 484.743 99.4682 485.877 98.6582L485.88 98.6562C487.061 97.8413 487.98 96.741 488.635 95.3496C489.289 93.9171 489.619 92.2752 489.619 90.4199C489.619 88.6402 489.329 87.0861 488.754 85.7539L488.635 85.4902L488.634 85.4883C488.02 84.1453 487.175 83.0959 486.102 82.334L485.884 82.1855L485.88 82.1826C484.703 81.3708 483.342 80.9639 481.79 80.9639ZM475.124 96.6729C475.354 96.982 475.602 97.2723 475.866 97.5449C475.668 97.3406 475.48 97.1262 475.301 96.9014C475.241 96.8264 475.182 96.7501 475.124 96.6729ZM473.343 91.7891C473.348 91.8391 473.354 91.8888 473.359 91.9385C473.352 91.8681 473.344 91.7976 473.337 91.7266L473.343 91.7891Z" fill="#4B3928"/>
<path fill-rule="evenodd" clip-rule="evenodd" d="M604.307 75.2617L613.703 97.999L622.808 75.2637L622.854 75.1484H630.894L630.787 75.4043L616.263 110.023L616.262 110.025C615.383 112.033 614.482 113.792 613.56 115.303C612.669 116.829 611.542 118.002 610.177 118.812L610.176 118.812C608.804 119.668 607.057 120.09 604.949 120.09C603.925 120.09 602.78 119.898 601.516 119.519C600.447 119.187 599.41 118.775 598.406 118.282L597.979 118.066L597.822 117.985L597.896 117.825L600.604 111.959L600.771 112.039C601.362 112.319 601.916 112.551 602.434 112.736L602.938 112.906L602.948 112.909C603.608 113.157 604.127 113.273 604.512 113.273C605.478 113.273 606.27 113.012 606.899 112.501L606.909 112.492C607.584 112.016 608.128 111.296 608.535 110.319L608.536 110.317L610.212 106.396L596.214 75.1484H604.259L604.307 75.2617ZM604.567 119.896C604.697 119.902 604.824 119.905 604.949 119.905C604.699 119.905 604.441 119.894 604.175 119.87L604.567 119.896ZM613.062 115.757C612.832 116.105 612.588 116.431 612.33 116.736C612.653 116.354 612.955 115.938 613.234 115.488L613.062 115.757Z" fill="#4B3928"/>
<path fill-rule="evenodd" clip-rule="evenodd" d="M218.309 74.3965C221.138 74.3966 223.696 75.1365 225.98 76.6162C228.267 78.0558 230.063 80.1495 231.37 82.8887C232.721 85.6321 233.392 88.8962 233.392 92.6738V92.8574H209.773C209.901 94.3077 210.296 95.5915 210.955 96.7119C211.722 97.9767 212.72 98.9696 213.952 99.6943L214.202 99.8359C215.551 100.571 217.043 100.94 218.684 100.94C220.577 100.94 222.125 100.529 223.339 99.7197C224.564 98.8611 225.524 97.7579 226.22 96.4082L226.298 96.2559L226.456 96.3223L232.838 99.0303L232.745 99.207C231.859 100.895 230.719 102.371 229.326 103.638C227.971 104.908 226.342 105.88 224.442 106.556L224.443 106.557C222.583 107.233 220.453 107.569 218.058 107.569C215.175 107.569 212.582 106.958 210.283 105.732L209.827 105.479L209.823 105.477C207.458 104.041 205.579 102.076 204.187 99.5869L204.186 99.585C202.833 97.0919 202.16 94.223 202.16 90.9834C202.16 87.7427 202.854 84.8724 204.249 82.3789C205.642 79.8885 207.544 77.9441 209.952 76.5498C212.404 75.113 215.191 74.3965 218.309 74.3965ZM228.421 104.177C227.343 105.034 226.113 105.727 224.729 106.255L225.072 106.12C225.525 105.935 225.96 105.731 226.379 105.509C226.588 105.398 226.793 105.283 226.994 105.163C227.496 104.863 227.972 104.534 228.421 104.177ZM207.127 103.157C207.247 103.274 207.369 103.39 207.492 103.503C207.616 103.616 207.741 103.727 207.868 103.836C208.123 104.054 208.386 104.264 208.655 104.466L208.257 104.157C207.732 103.737 207.238 103.285 206.773 102.8L207.127 103.157ZM214.637 100.262C214.681 100.282 214.725 100.301 214.77 100.32C214.637 100.261 214.504 100.201 214.374 100.135L214.637 100.262ZM209.939 94.7988C209.944 94.8146 209.95 94.83 209.954 94.8457C209.932 94.7688 209.91 94.6913 209.89 94.6133L209.939 94.7988ZM218.12 80.7754C216.898 80.7754 215.672 81.0608 214.442 81.6348L214.438 81.6367C213.216 82.166 212.198 82.9795 211.382 84.0811L211.38 84.084C210.752 84.8998 210.367 85.9049 210.228 87.1055H225.456C225.34 85.9976 225.037 85.056 224.549 84.2764L224.417 84.0771L224.415 84.0742C223.727 83.0428 222.863 82.2652 221.821 81.7373L221.611 81.6348L221.604 81.6318C220.503 81.0611 219.342 80.7754 218.12 80.7754ZM230.426 81.5127C230.518 81.6668 230.608 81.8233 230.696 81.9824C230.52 81.6637 230.335 81.3552 230.144 81.0566L230.426 81.5127ZM216.055 74.7139C215.882 74.7349 215.71 74.7591 215.539 74.7852C215.89 74.7317 216.246 74.6886 216.606 74.6562L216.055 74.7139Z" fill="#4B3928"/>
<path fill-rule="evenodd" clip-rule="evenodd" d="M269.729 79.3008C270.514 78.1903 271.439 77.2547 272.504 76.4971C274.459 75.0948 276.772 74.3965 279.436 74.3965C282.303 74.3965 284.801 75.0929 286.921 76.4912C289.081 77.8464 290.751 79.7721 291.934 82.2617C293.159 84.7132 293.768 87.6227 293.768 90.9834L293.761 91.6006C293.689 94.6646 293.082 97.3675 291.934 99.7041C290.752 102.194 289.081 104.139 286.923 105.536L286.922 105.537C284.801 106.894 282.303 107.569 279.436 107.569C276.94 107.569 274.751 106.975 272.877 105.78L272.507 105.533L272.503 105.53C271.388 104.713 270.427 103.707 269.618 102.517L269.353 106.646L269.342 106.818H262.349V62.6279H269.729V79.3008ZM277.745 81.2139C276.194 81.2139 274.811 81.6213 273.591 82.4346C272.371 83.248 271.41 84.3879 270.714 85.8613C270.058 87.3361 269.729 89.0428 269.729 90.9834L269.732 91.3447C269.771 93.1348 270.099 94.719 270.713 96.1006C271.409 97.5754 272.348 98.738 273.527 99.5938C274.747 100.407 276.131 100.815 277.683 100.815C279.32 100.815 280.766 100.407 282.027 99.5928C283.291 98.7356 284.293 97.5718 285.03 96.0967L285.032 96.0928C285.809 94.6208 286.2 92.9193 286.2 90.9834C286.2 89.1668 285.874 87.5562 285.227 86.1484L285.093 85.8701L285.091 85.8662C284.438 84.4843 283.536 83.3947 282.386 82.5928L282.152 82.4365C280.892 81.6232 279.425 81.2139 277.745 81.2139ZM282.127 99.7471C281.965 99.8515 281.801 99.9497 281.633 100.041C281.299 100.223 280.954 100.379 280.598 100.509C281.134 100.313 281.643 100.059 282.127 99.7471ZM273.903 100.041C273.936 100.06 273.97 100.077 274.003 100.095C273.96 100.071 273.916 100.048 273.873 100.023L273.903 100.041ZM271.284 97.4961C271.88 98.3945 272.594 99.1445 273.426 99.7471C273.274 99.6374 273.127 99.5228 272.983 99.4033C272.912 99.3437 272.841 99.2828 272.771 99.2207C272.423 98.9101 272.098 98.5691 271.798 98.1973C271.738 98.123 271.679 98.0474 271.621 97.9707C271.505 97.8172 271.392 97.6593 271.284 97.4961ZM284.411 97.4951C284.296 97.6586 284.176 97.817 284.053 97.9707C283.867 98.201 283.673 98.4206 283.469 98.6289C283.81 98.2815 284.123 97.9038 284.411 97.4951ZM286.358 91.8135C286.361 91.7784 286.364 91.7433 286.366 91.708L286.367 91.6855C286.365 91.7283 286.361 91.7709 286.358 91.8135ZM293.328 87.4209C293.498 88.5438 293.584 89.7314 293.584 90.9834C293.584 90.7746 293.582 90.5675 293.577 90.3623C293.554 89.3371 293.47 88.3565 293.328 87.4209ZM291.988 82.8037C292.201 83.2681 292.392 83.7485 292.562 84.2451L292.386 83.7539C292.263 83.4296 292.13 83.1136 291.988 82.8037Z" fill="#4B3928"/>
<path fill-rule="evenodd" clip-rule="evenodd" d="M311.913 74.3965C314.742 74.3965 317.302 75.1364 319.586 76.6162C321.872 78.0557 323.668 80.1496 324.975 82.8887C326.325 85.6322 326.997 88.8961 326.997 92.6738V92.8574H303.379C303.506 94.3077 303.901 95.5915 304.561 96.7119C305.327 97.9767 306.326 98.9696 307.558 99.6943L307.808 99.8359C309.156 100.571 310.649 100.94 312.289 100.94C314.182 100.94 315.73 100.529 316.944 99.7197C318.17 98.8611 319.13 97.7579 319.825 96.4082L319.903 96.2559L320.062 96.3223L326.443 99.0303L326.35 99.207C325.464 100.894 324.324 102.371 322.932 103.638C321.576 104.908 319.947 105.88 318.048 106.556L318.049 106.557C316.188 107.233 314.059 107.569 311.663 107.569C308.78 107.569 306.186 106.959 303.888 105.732L303.433 105.479L303.429 105.477C301.064 104.041 299.184 102.076 297.792 99.5869L297.791 99.585C296.439 97.0919 295.766 94.223 295.766 90.9834C295.766 87.7427 296.46 84.8724 297.854 82.3789C299.247 79.8885 301.149 77.9441 303.558 76.5498C306.009 75.1131 308.796 74.3965 311.913 74.3965ZM317.284 106.618C317.165 106.655 317.046 106.691 316.925 106.725C317.167 106.657 317.405 106.583 317.639 106.505L317.284 106.618ZM322.026 104.177C320.948 105.034 319.718 105.727 318.335 106.255L318.678 106.12C319.922 105.611 321.038 104.962 322.026 104.177ZM323.793 102.525C323.558 102.78 323.314 103.027 323.062 103.267L323.312 103.024C323.476 102.861 323.636 102.695 323.793 102.525ZM308.242 100.262C308.289 100.284 308.337 100.304 308.385 100.325C308.249 100.265 308.113 100.202 307.979 100.135L308.242 100.262ZM305.263 98.0049C305.319 98.0706 305.376 98.1345 305.434 98.1982C305.311 98.0628 305.193 97.9234 305.078 97.7793L305.263 98.0049ZM303.545 94.7988C303.551 94.8184 303.557 94.8379 303.562 94.8574C303.539 94.7767 303.517 94.6952 303.495 94.6133L303.545 94.7988ZM311.726 80.7754C310.503 80.7754 309.278 81.0608 308.048 81.6348L308.043 81.6367C306.822 82.166 305.803 82.9796 304.987 84.0811L304.985 84.084C304.358 84.8998 303.972 85.9048 303.832 87.1055H319.062C318.946 85.9974 318.642 85.0561 318.153 84.2764L318.022 84.0771L318.021 84.0742C317.333 83.0428 316.468 82.2652 315.427 81.7373L315.217 81.6348L315.209 81.6309C314.108 81.0601 312.948 80.7754 311.726 80.7754ZM304.111 85.2393C304.066 85.3491 304.023 85.4609 303.983 85.5752L303.976 85.5986C304.017 85.4762 304.063 85.3566 304.111 85.2393ZM307.51 81.6846C307.175 81.8563 306.857 82.0514 306.555 82.2686C306.925 82.0028 307.319 81.771 307.737 81.5732L307.51 81.6846Z" fill="#4B3928"/>
<path fill-rule="evenodd" clip-rule="evenodd" d="M517.142 74.3965C519.971 74.3965 522.53 75.1364 524.814 76.6162C527.101 78.0557 528.896 80.1496 530.203 82.8887C531.554 85.6322 532.226 88.8961 532.226 92.6738V92.8574H508.607C508.735 94.3069 509.129 95.59 509.787 96.71C510.554 97.9756 511.554 98.9693 512.786 99.6943L513.036 99.8359C514.385 100.571 515.877 100.94 517.518 100.94C519.411 100.94 520.959 100.529 522.173 99.7197C523.398 98.8611 524.358 97.7579 525.054 96.4082L525.132 96.2559L525.29 96.3223L531.672 99.0303L531.578 99.207C530.692 100.894 529.553 102.371 528.16 103.638C526.805 104.908 525.176 105.88 523.276 106.556L523.277 106.557C521.417 107.233 519.287 107.569 516.892 107.569C514.008 107.569 511.415 106.959 509.116 105.732L508.661 105.479L508.657 105.477C506.292 104.041 504.413 102.076 503.021 99.5869L503.02 99.585C501.667 97.0919 500.994 94.223 500.994 90.9834C500.994 87.7427 501.688 84.8724 503.083 82.3789C504.476 79.8885 506.378 77.9441 508.786 76.5498C511.237 75.1131 514.024 74.3965 517.142 74.3965ZM527.255 104.177C527.075 104.32 526.891 104.458 526.703 104.592C526.985 104.391 527.258 104.181 527.521 103.96L527.255 104.177ZM529.021 102.525C528.787 102.78 528.543 103.027 528.29 103.267L528.54 103.024C528.704 102.861 528.865 102.695 529.021 102.525ZM513.471 100.262C513.511 100.281 513.553 100.298 513.594 100.316C513.464 100.258 513.334 100.199 513.207 100.135L513.471 100.262ZM521.679 100.223C521.716 100.203 521.754 100.186 521.79 100.166L521.806 100.157C521.764 100.18 521.721 100.201 521.679 100.223ZM510.491 98.0049C510.608 98.1428 510.73 98.2759 510.854 98.4053C510.663 98.2066 510.48 97.9981 510.307 97.7793L510.491 98.0049ZM508.773 94.7988C508.779 94.8184 508.785 94.8379 508.791 94.8574C508.767 94.7767 508.745 94.6952 508.724 94.6133L508.773 94.7988ZM516.954 80.7754C515.732 80.7754 514.506 81.0608 513.276 81.6348L513.271 81.6367C512.05 82.166 511.032 82.9796 510.216 84.0811L510.214 84.084C509.586 84.8998 509.2 85.9048 509.061 87.1055H524.29C524.174 85.9974 523.87 85.0561 523.382 84.2764L523.251 84.0771L523.249 84.0742C522.516 82.9741 521.581 82.1623 520.444 81.6348L520.438 81.6309C519.337 81.0601 518.176 80.7754 516.954 80.7754ZM512.738 81.6846C512.673 81.7183 512.607 81.7526 512.543 81.7881C512.681 81.7122 512.822 81.6411 512.966 81.5732L512.738 81.6846Z" fill="#4B3928"/>
<path fill-rule="evenodd" clip-rule="evenodd" d="M583.515 74.3965C586.634 74.3965 589.463 75.1558 591.997 76.6758C594.377 78.0644 596.181 80.0302 597.407 82.5684L597.645 83.084L597.722 83.2607L597.542 83.3301L591.031 85.834L590.873 85.8945L590.799 85.7422C590.188 84.4828 589.274 83.4551 588.051 82.6582L587.802 82.502C586.456 81.6863 584.924 81.2764 583.202 81.2764C581.524 81.2764 580.037 81.7053 578.733 82.5605L578.729 82.5635C577.425 83.379 576.404 84.5211 575.667 85.9951L575.666 85.9971C574.93 87.4276 574.56 89.0881 574.56 90.9834L574.563 91.3359C574.607 93.0854 574.975 94.6484 575.664 96.0283C576.443 97.4633 577.487 98.6087 578.796 99.4678C580.141 100.282 581.65 100.69 583.327 100.69C585.046 100.69 586.575 100.261 587.92 99.4062C589.267 98.5081 590.267 97.3051 590.921 95.793L590.991 95.6309L597.667 98.1982L597.846 98.2666L597.771 98.4424C596.546 101.313 594.664 103.554 592.127 105.161C589.633 106.767 586.803 107.569 583.641 107.569C580.603 107.569 577.89 106.959 575.509 105.733L575.036 105.48L575.034 105.479C572.544 104.043 570.58 102.079 569.145 99.5889L569.144 99.5869C567.749 97.0935 567.054 94.2239 567.054 90.9834C567.054 87.7427 567.749 84.8724 569.144 82.3789L569.145 82.377C570.579 79.8871 572.522 77.9436 574.972 76.5498C577.465 75.113 580.315 74.3966 583.515 74.3965ZM590.608 105.814C590.495 105.871 590.38 105.924 590.266 105.978C590.544 105.848 590.819 105.711 591.09 105.563L590.608 105.814ZM573.377 104.157C573.514 104.262 573.654 104.365 573.796 104.466C573.513 104.264 573.238 104.054 572.971 103.836L573.377 104.157ZM587.228 100.006C586.956 100.139 586.678 100.258 586.394 100.36C586.109 100.463 585.817 100.55 585.52 100.622C585.065 100.732 584.595 100.805 584.11 100.843C585.232 100.755 586.27 100.477 587.228 100.006ZM574.445 92.3838C574.451 92.4344 574.457 92.4848 574.463 92.5352C574.455 92.4639 574.447 92.3923 574.439 92.3203L574.445 92.3838Z" fill="#4B3928"/>
<path d="M151.774 62.7598L161.299 95.2822L170.451 62.7617L170.489 62.6279H177.968L187.151 94.9326L196.62 62.7598L196.659 62.6279H204.433L204.36 62.8652L191.089 106.688L191.049 106.818H183.071L183.034 106.683L174.203 74.6523L165.235 106.684L165.197 106.818H157.22L157.181 106.687L144.097 62.8652L144.026 62.6279H151.736L151.774 62.7598Z" fill="#4B3928"/>
<path d="M243.896 106.818H236.515V62.6279H243.896V106.818Z" fill="#4B3928"/>
<path d="M256.812 106.818H249.432V62.6279H256.812V106.818Z" fill="#4B3928"/>
<path d="M337.876 106.818H330.559V75.1484H337.876V106.818Z" fill="#4B3928"/>
<path fill-rule="evenodd" clip-rule="evenodd" d="M360.417 74.3965C362.945 74.3965 365.105 74.9026 366.892 75.9229C368.725 76.9462 370.107 78.5433 371.039 80.7021C372.014 82.8216 372.495 85.5842 372.495 88.9795V106.818H365.115V90.6074C365.115 88.1132 364.823 86.223 364.254 84.9219L364.252 84.916C363.721 83.5691 362.953 82.649 361.959 82.1318L361.956 82.1309C360.987 81.6058 359.828 81.3389 358.476 81.3389H358.473C356.183 81.298 354.426 82.0524 353.173 83.5879C351.916 85.129 351.273 87.3557 351.273 90.2949V106.818H343.893V75.1484H350.821L350.835 75.3184L351.124 79.1309C351.907 77.9826 352.841 77.0398 353.928 76.3066C355.757 75.0313 357.923 74.3965 360.417 74.3965ZM361.461 81.6924C361.662 81.775 361.856 81.8671 362.044 81.9688C362.305 82.1044 362.55 82.2663 362.779 82.4541C362.837 82.501 362.893 82.5495 362.948 82.5996C362.671 82.3485 362.37 82.1383 362.044 81.9688C361.794 81.8331 361.532 81.714 361.258 81.6123L361.461 81.6924Z" fill="#4B3928"/>
<path fill-rule="evenodd" clip-rule="evenodd" d="M448.191 62.7432L465.721 106.565L465.821 106.818H457.723L457.678 106.701L453.524 96.0508H434.88L430.727 106.701L430.681 106.818H422.582L440.149 62.7441L440.195 62.6279H448.146L448.191 62.7432ZM437.539 89.2334H450.865L444.201 72.1475L437.539 89.2334Z" fill="#4B3928"/>
<path fill-rule="evenodd" clip-rule="evenodd" d="M551.872 74.3965C554.4 74.3965 556.561 74.9025 558.348 75.9229C560.181 76.9461 561.562 78.5434 562.494 80.7021C563.469 82.8216 563.951 85.5842 563.951 88.9795V106.818H556.571V90.6074L556.558 89.7002C556.494 87.6498 556.208 86.0604 555.71 84.9219L555.707 84.916C555.176 83.5695 554.409 82.6489 553.415 82.1318L553.412 82.1309C552.443 81.6057 551.285 81.3389 549.932 81.3389H549.929C547.639 81.298 545.881 82.0524 544.628 83.5879C543.371 85.1289 542.729 87.356 542.729 90.2949V106.818H535.349V75.1484H542.277L542.29 75.3184L542.58 79.1309C543.363 77.9826 544.297 77.0398 545.384 76.3066C547.213 75.0315 549.378 74.3966 551.872 74.3965ZM544.25 83.7764C544.223 83.8133 544.199 83.8521 544.173 83.8896C544.204 83.8454 544.233 83.8002 544.265 83.7568L544.25 83.7764ZM553.5 81.9688C553.761 82.1044 554.006 82.2663 554.235 82.4541C554.293 82.501 554.349 82.5495 554.404 82.5996C554.127 82.3484 553.826 82.1384 553.5 81.9688ZM549.243 74.8447C549.105 74.8741 548.968 74.9062 548.832 74.9404C549.103 74.8719 549.38 74.8136 549.662 74.7646L549.243 74.8447Z" fill="#4B3928"/>
<path fill-rule="evenodd" clip-rule="evenodd" d="M334.249 61C335.423 61 336.429 61.4146 337.256 62.2402C338.126 63.0671 338.565 64.0754 338.565 65.2539L338.56 65.4727C338.508 66.5596 338.072 67.5129 337.259 68.3262C336.431 69.1538 335.424 69.5693 334.249 69.5693C333.147 69.5693 332.176 69.2048 331.344 68.4795L331.18 68.3291L331.173 68.3232C330.348 67.4552 329.933 66.429 329.933 65.2539C329.933 64.0784 330.348 63.0709 331.176 62.2432L331.18 62.2402C332.048 61.4155 333.074 61 334.249 61Z" fill="#4B3928"/>
<path fill-rule="evenodd" clip-rule="evenodd" d="M640.104 36.999L649.209 14.2637L649.255 14.1484H657.295L642.664 49.0234L642.663 49.0254C641.785 51.0332 640.883 52.7923 639.96 54.3027L639.961 54.3037C639.071 55.8297 637.944 57.0018 636.578 57.8125L636.577 57.8115C635.205 58.6679 633.459 59.0898 631.351 59.0898C630.327 59.0898 629.181 58.8978 627.917 58.5186H627.915C626.847 58.1871 625.811 57.7748 624.808 57.2822L624.38 57.0664L624.223 56.9854L624.297 56.8252L627.004 50.959L627.173 51.0391C627.763 51.3186 628.317 51.551 628.834 51.7363L629.34 51.9062L629.35 51.9092C630.009 52.1564 630.527 52.2734 630.912 52.2734C631.878 52.2734 632.67 52.0123 633.3 51.501L633.31 51.4922L633.311 51.4932C633.985 51.0169 634.529 50.2967 634.937 49.3193L634.938 49.3174L636.613 45.3955L622.731 14.4082L622.614 14.1484H630.66L640.104 36.999ZM631.632 52.4062C631.549 52.4184 631.465 52.4258 631.38 52.4336C631.584 52.4149 631.78 52.3865 631.969 52.3428L631.632 52.4062Z" fill="#4B3928"/>
<path fill-rule="evenodd" clip-rule="evenodd" d="M199.924 13.3965C202.753 13.3965 205.312 14.1366 207.596 15.6162C209.882 17.0557 211.679 19.1496 212.985 21.8887C214.336 24.6322 215.008 27.8961 215.008 31.6738V31.8574H191.39C191.517 33.3069 191.911 34.59 192.569 35.71C193.388 37.0599 194.47 38.1008 195.817 38.8359C197.166 39.5714 198.659 39.9404 200.3 39.9404C202.191 39.9404 203.737 39.5296 204.951 38.7217L205.179 38.5576C206.298 37.7237 207.183 36.6746 207.836 35.4082L207.914 35.2559L208.071 35.3223L214.27 37.9521L214.453 38.0303L214.36 38.207C213.474 39.8946 212.334 41.3713 210.941 42.6377L210.942 42.6387C209.587 43.9092 207.958 44.8803 206.059 45.5557L206.06 45.5566C204.199 46.2331 202.07 46.5693 199.674 46.5693C196.598 46.5693 193.852 45.8737 191.442 44.4785L191.439 44.4766C189.222 43.1303 187.432 41.3199 186.069 39.0479L185.803 38.5869L185.802 38.585C184.45 36.0919 183.775 33.223 183.775 29.9834C183.775 26.7427 184.471 23.8724 185.865 21.3789C187.258 18.8885 189.16 16.9441 191.568 15.5498C194.02 14.1131 196.807 13.3965 199.924 13.3965ZM196.253 39.2617C196.294 39.2807 196.335 39.2981 196.376 39.3164C196.246 39.2584 196.117 39.1991 195.989 39.1348L196.253 39.2617ZM204.559 39.1729C204.563 39.1704 204.568 39.1685 204.572 39.166L204.588 39.1572C204.578 39.1626 204.568 39.1676 204.559 39.1729ZM183.988 28.8691C183.969 29.2354 183.96 29.6068 183.96 29.9834L183.969 29.3848L183.988 28.8691ZM191.838 25.0996C191.742 25.4751 191.676 25.8719 191.638 26.29C191.676 25.878 191.741 25.4868 191.834 25.1162L191.838 25.0996ZM199.736 19.7754C198.514 19.7754 197.288 20.0607 196.058 20.6348L196.054 20.6367C194.832 21.166 193.814 21.9797 192.998 23.0811L192.996 23.084C192.369 23.8998 191.983 24.9048 191.843 26.1055H207.072C206.956 24.9974 206.653 24.0561 206.164 23.2764L206.032 23.0771L206.03 23.0742C205.297 21.9741 204.363 21.1623 203.227 20.6348L203.22 20.6318C202.119 20.061 200.958 19.7754 199.736 19.7754ZM213.062 22.4844C213.219 22.8317 213.365 23.1871 213.501 23.5508L213.29 23.0117C213.217 22.8338 213.141 22.6582 213.062 22.4844ZM196.449 20.2617C196.306 20.3203 196.163 20.384 196.02 20.4502C196.319 20.3117 196.619 20.189 196.919 20.084L196.449 20.2617Z" fill="#4B3928"/>
<path fill-rule="evenodd" clip-rule="evenodd" d="M227.765 14.1484H236.216V20.5264H227.765V35.4922C227.765 36.9271 228.093 37.9816 228.719 38.6865C229.384 39.3889 230.351 39.7529 231.649 39.7529C232.042 39.7529 232.482 39.674 232.969 39.5117C233.445 39.353 233.991 39.0512 234.608 38.5986L234.787 38.4678L234.883 38.667L237.45 43.9883L237.519 44.1309L237.389 44.2207C236.292 44.98 235.191 45.5508 234.088 45.9326C232.985 46.3558 231.881 46.5693 230.773 46.5693C227.655 46.5693 225.196 45.8478 223.419 44.3818L223.073 44.0791L223.069 44.0752C221.313 42.3618 220.447 39.9294 220.447 36.8066V20.5264H215.251V14.1484H220.447V4.38184H227.765V14.1484ZM231.18 46.375L230.773 46.3848C231.045 46.3848 231.316 46.3718 231.587 46.3457L231.18 46.375Z" fill="#4B3928"/>
<path fill-rule="evenodd" clip-rule="evenodd" d="M254.797 13.3965C257.626 13.3966 260.185 14.1365 262.469 15.6162C264.755 17.0558 266.552 19.1495 267.858 21.8887C269.209 24.6321 269.88 27.8962 269.88 31.6738V31.8574H246.262C246.389 33.3077 246.784 34.5915 247.443 35.7119C248.21 36.9767 249.209 37.9696 250.44 38.6943L250.69 38.8359C252.039 39.5714 253.531 39.9404 255.172 39.9404C257.065 39.9404 258.613 39.5291 259.827 38.7197C261.053 37.8611 262.013 36.7579 262.708 35.4082L262.786 35.2559L262.944 35.3223L269.326 38.0303L269.233 38.207C268.347 39.8945 267.207 41.3713 265.814 42.6377C264.459 43.9084 262.83 44.8802 260.931 45.5557L260.932 45.5566C259.071 46.2331 256.942 46.5693 254.546 46.5693C251.663 46.5693 249.07 45.9583 246.771 44.7324L246.315 44.4785L246.312 44.4766C243.946 43.0405 242.067 41.076 240.675 38.5869L240.674 38.585C239.322 36.0919 238.648 33.223 238.648 29.9834C238.648 26.7427 239.343 23.8724 240.737 21.3789C242.13 18.8884 244.032 16.9441 246.44 15.5498C248.892 14.113 251.68 13.3965 254.797 13.3965ZM264.909 43.1768C263.831 44.0337 262.601 44.7267 261.218 45.2549L261.561 45.1201C262.013 44.9349 262.448 44.7306 262.867 44.5088C263.076 44.398 263.282 44.283 263.482 44.1631C263.985 43.863 264.46 43.5339 264.909 43.1768ZM243.615 42.1572C243.735 42.2745 243.857 42.3897 243.98 42.5029C244.104 42.616 244.229 42.727 244.356 42.8359C244.611 43.0542 244.874 43.2639 245.144 43.4658L244.745 43.1572C244.221 42.7372 243.726 42.285 243.262 41.7998L243.615 42.1572ZM251.125 39.2617C251.169 39.2821 251.214 39.3006 251.258 39.3203C251.125 39.2611 250.993 39.2005 250.862 39.1348L251.125 39.2617ZM254.608 19.7754C253.386 19.7754 252.161 20.0608 250.931 20.6348L250.926 20.6367C249.704 21.166 248.686 21.9795 247.87 23.0811L247.868 23.084C247.241 23.8998 246.856 24.9049 246.716 26.1055H261.944C261.828 24.9976 261.526 24.056 261.037 23.2764L260.905 23.0771L260.903 23.0742C260.216 22.0428 259.351 21.2652 258.31 20.7373L258.1 20.6348L258.092 20.6309C256.991 20.0601 255.83 19.7754 254.608 19.7754ZM266.914 20.5127C267.006 20.6668 267.096 20.8233 267.185 20.9824C267.008 20.6637 266.823 20.3552 266.632 20.0566L266.914 20.5127ZM250.393 20.6846C250.195 20.786 250.004 20.8964 249.817 21.0137C250.074 20.852 250.342 20.7048 250.62 20.5732L250.393 20.6846ZM252.543 13.7139C252.37 13.7349 252.198 13.7591 252.027 13.7852C252.378 13.7317 252.734 13.6886 253.095 13.6562L252.543 13.7139Z" fill="#4B3928"/>
<path fill-rule="evenodd" clip-rule="evenodd" d="M306.135 13.3965C309.203 13.3965 311.783 14.0064 313.862 15.2363C315.942 16.4247 317.472 18.1453 318.447 20.3916C319.462 22.6332 319.966 25.3315 319.966 28.4805V28.4824L319.776 45.8184H312.971L312.962 45.6436L312.788 42.3936C312.689 42.5517 312.589 42.7078 312.483 42.8594L312.482 42.8604C310.728 45.3428 307.929 46.5693 304.131 46.5693C300.586 46.5693 297.756 45.8306 295.661 44.334L295.252 44.0254L295.25 44.0234C293.155 42.3134 292.115 39.899 292.115 36.8066C292.115 33.5062 293.218 30.9644 295.44 29.2119L295.441 29.2109C297.696 27.4665 300.809 26.6065 304.757 26.6064H312.473C312.388 25.9623 312.274 25.3669 312.128 24.8203L311.969 24.2803L311.967 24.2744C311.584 22.9331 310.953 21.9101 310.082 21.1924L309.905 21.0537L309.898 21.0479C308.981 20.2897 307.733 19.9005 306.135 19.9004C304.659 19.9004 303.375 20.2081 302.28 20.8164C301.187 21.4236 300.248 22.3783 299.469 23.6914L299.391 23.8232L292.921 21.4473L293.01 21.2637C293.686 19.8693 294.573 18.5808 295.67 17.3994C296.816 16.1685 298.236 15.1942 299.927 14.4756H299.929L300.259 14.3447C301.928 13.7114 303.888 13.3965 306.135 13.3965ZM296.188 44.4678C296.331 44.5591 296.478 44.6467 296.628 44.7314C296.328 44.562 296.041 44.38 295.768 44.1846L296.188 44.4678ZM311.999 43.1934C311.945 43.26 311.891 43.3261 311.835 43.3906C311.95 43.2574 312.061 43.1197 312.169 42.9775L311.999 43.1934ZM292.886 40.4102C292.998 40.7156 293.126 41.01 293.27 41.2939L293.066 40.8604C293.002 40.7129 292.942 40.563 292.886 40.4102ZM302.923 40.3086C302.974 40.3191 303.026 40.3273 303.078 40.3369C302.935 40.3105 302.796 40.2828 302.66 40.25L302.923 40.3086ZM307.011 32.3584C304.22 32.3584 302.309 32.7568 301.232 33.5146L301.229 33.5176C300.156 34.2327 299.62 35.2583 299.62 36.6191L299.626 36.832C299.679 37.8838 300.13 38.7185 300.985 39.3506C301.945 39.9876 303.28 40.3164 305.008 40.3164C306.565 40.3164 307.909 39.9676 309.044 39.2783C310.185 38.5854 311.059 37.6706 311.669 36.5322L311.671 36.5273C312.321 35.389 312.648 34.1062 312.648 32.6748V32.3584H307.011ZM301.269 39.7334C301.286 39.7426 301.304 39.7507 301.321 39.7598C301.295 39.7464 301.27 39.7335 301.244 39.7197L301.269 39.7334ZM292.311 37.3701C292.327 37.7399 292.358 38.099 292.406 38.4473C292.43 38.6218 292.458 38.7937 292.49 38.9629C292.394 38.4562 292.335 37.9253 292.311 37.3701ZM299.458 37.0615C299.462 37.1029 299.468 37.1438 299.474 37.1846C299.467 37.1394 299.462 37.0938 299.457 37.0479L299.458 37.0615ZM311.429 22.5107C311.46 22.5649 311.491 22.62 311.521 22.6758C311.451 22.5459 311.377 22.4202 311.299 22.2988L311.429 22.5107Z" fill="#4B3928"/>
<path fill-rule="evenodd" clip-rule="evenodd" d="M383.767 13.3965C386.835 13.3965 389.414 14.0065 391.494 15.2363C393.574 16.4247 395.104 18.1453 396.079 20.3916C397.094 22.6332 397.598 25.3315 397.598 28.4805V28.4824L397.408 45.8184H390.603L390.594 45.6436L390.42 42.3945C390.321 42.5525 390.22 42.708 390.115 42.8594L390.114 42.8604C388.359 45.3428 385.561 46.5693 381.763 46.5693C378.218 46.5693 375.388 45.8306 373.293 44.334L372.884 44.0254L372.882 44.0234C370.787 42.3134 369.747 39.899 369.747 36.8066C369.747 33.5062 370.85 30.9644 373.072 29.2119L373.073 29.2109C375.328 27.4665 378.441 26.6065 382.389 26.6064H390.104C389.991 25.7435 389.823 24.9682 389.601 24.2803L389.599 24.2744C389.215 22.9331 388.585 21.9101 387.714 21.1924L387.537 21.0537L387.53 21.0479C386.612 20.2897 385.365 19.9004 383.767 19.9004C382.29 19.9004 381.007 20.2081 379.912 20.8164C378.819 21.4235 377.881 22.3785 377.102 23.6914L377.022 23.8232L370.553 21.4473L370.642 21.2637C371.318 19.8693 372.205 18.5808 373.302 17.3994C374.448 16.1685 375.868 15.1942 377.559 14.4756H377.561L377.891 14.3447C379.56 13.7114 381.52 13.3965 383.767 13.3965ZM380.555 40.3086C380.606 40.3191 380.658 40.3273 380.71 40.3369C380.567 40.3105 380.428 40.2828 380.292 40.25L380.555 40.3086ZM384.643 32.3584C381.852 32.3584 379.941 32.7567 378.864 33.5146L378.86 33.5176C377.788 34.2327 377.252 35.2584 377.252 36.6191L377.258 36.832C377.311 37.8821 377.761 38.715 378.613 39.3467C379.574 39.9857 380.909 40.3164 382.64 40.3164C384.197 40.3164 385.54 39.9676 386.676 39.2783C387.817 38.5854 388.691 37.6706 389.301 36.5322L389.303 36.5273C389.953 35.389 390.28 34.1062 390.28 32.6748V32.3584H384.643ZM378.9 39.7334C378.918 39.7426 378.936 39.7507 378.953 39.7598C378.927 39.7464 378.901 39.7335 378.876 39.7197L378.9 39.7334ZM377.09 37.0615C377.094 37.1029 377.1 37.1438 377.105 37.1846C377.099 37.1394 377.094 37.0938 377.089 37.0479L377.09 37.0615ZM389.061 22.5107C389.092 22.5649 389.123 22.62 389.153 22.6758C389.083 22.5459 389.008 22.4202 388.931 22.2988L389.061 22.5107Z" fill="#4B3928"/>
<path fill-rule="evenodd" clip-rule="evenodd" d="M465.514 45.8184H458.519L458.509 45.6436L458.287 41.5254C457.469 42.7122 456.494 43.7157 455.357 44.5312L455.356 44.5322C453.443 45.8928 451.151 46.5693 448.489 46.5693C445.8 46.5693 443.419 45.9759 441.351 44.7842L440.941 44.5381L440.938 44.5361C438.953 43.2265 437.362 41.4335 436.163 39.1641L435.928 38.7041L435.927 38.7012C434.744 36.2096 434.156 33.302 434.156 29.9834C434.156 26.6234 434.745 23.7146 435.928 21.2637L436.163 20.8027C437.362 18.5352 438.954 16.763 440.939 15.4922L441.349 15.2383C443.417 14.0092 445.799 13.3965 448.489 13.3965C451.152 13.3966 453.446 14.0947 455.359 15.498C456.452 16.259 457.397 17.1984 458.195 18.3154V1.62793H465.514V45.8184ZM450.179 20.2139C448.542 20.2139 447.095 20.6227 445.834 21.4365C444.571 22.2517 443.57 23.3945 442.832 24.8701C442.137 26.3444 441.766 28.0488 441.725 29.9873C441.767 31.9226 442.137 33.6244 442.832 35.0967C443.569 36.5707 444.569 37.7338 445.832 38.5908C447.136 39.4061 448.605 39.8154 450.242 39.8154C451.794 39.8153 453.154 39.4073 454.331 38.5957C455.553 37.74 456.492 36.5784 457.147 35.1045L457.149 35.1006C457.845 33.6269 458.195 31.9225 458.195 29.9834L458.191 29.6221C458.153 27.9509 457.847 26.4593 457.275 25.1445L457.149 24.8662L457.147 24.8623C456.533 23.4808 455.671 22.3918 454.56 21.5908L454.334 21.4346L454.331 21.4336C453.155 20.6224 451.773 20.2139 450.179 20.2139ZM453.908 39.0771C453.93 39.0649 453.952 39.0535 453.974 39.041L453.988 39.0322C453.962 39.0477 453.935 39.0621 453.908 39.0771ZM445.986 38.8994C446.029 38.9238 446.072 38.9462 446.114 38.9697C445.986 38.8989 445.859 38.8252 445.734 38.7471L445.986 38.8994ZM443.45 36.4961C443.91 37.1494 444.439 37.7238 445.035 38.2207C444.663 37.9101 444.317 37.569 443.997 37.1973C443.933 37.123 443.87 37.0475 443.809 36.9707C443.685 36.8172 443.565 36.6593 443.45 36.4961ZM457.315 35.1787C457.232 35.3665 457.144 35.5495 457.052 35.7275L457.188 35.457C457.231 35.3657 457.274 35.2725 457.315 35.1787ZM442.197 34.0098C442.205 34.0336 442.214 34.0573 442.222 34.0811C442.19 33.9878 442.16 33.8936 442.13 33.7988L442.197 34.0098ZM441.853 32.7529C441.859 32.7834 441.867 32.8134 441.874 32.8438C441.857 32.7664 441.839 32.6887 441.823 32.6104L441.853 32.7529ZM441.571 30.708C441.577 30.7977 441.584 30.8869 441.592 30.9756C441.575 30.7693 441.561 30.5604 441.552 30.3486L441.571 30.708ZM457.564 25.3613C457.603 25.4589 457.642 25.5569 457.678 25.6562C457.606 25.4576 457.528 25.2628 457.444 25.0713L457.564 25.3613Z" fill="#4B3928"/>
<path fill-rule="evenodd" clip-rule="evenodd" d="M528.62 13.3965C531.689 13.3965 534.268 14.0065 536.348 15.2363C538.427 16.4247 539.957 18.1454 540.933 20.3916C541.948 22.6332 542.452 25.3315 542.452 28.4805V28.4824L542.262 45.8184H535.457L535.447 45.6436L535.274 42.3945C535.176 42.5526 535.074 42.7079 534.969 42.8594L534.968 42.8604C533.213 45.3427 530.415 46.5692 526.617 46.5693C523.072 46.5693 520.242 45.8307 518.146 44.334L517.737 44.0254L517.735 44.0234C515.641 42.3134 514.601 39.8989 514.601 36.8066C514.601 33.5062 515.703 30.9644 517.926 29.2119L517.928 29.2109C520.183 27.4667 523.296 26.6064 527.243 26.6064H534.959C534.845 25.7435 534.677 24.9682 534.454 24.2803L534.452 24.2744C534.069 22.9333 533.439 21.9101 532.568 21.1924L532.391 21.0537L532.384 21.0479C531.466 20.2897 530.218 19.9004 528.62 19.9004C527.144 19.9004 525.861 20.208 524.766 20.8164C523.673 21.4236 522.735 22.3784 521.955 23.6914L521.877 23.8232L521.732 23.7705L515.406 21.4473L515.495 21.2637C516.171 19.8693 517.058 18.5808 518.155 17.3994C519.301 16.1684 520.722 15.1942 522.413 14.4756L522.744 14.3447C524.413 13.7113 526.373 13.3965 528.62 13.3965ZM529.543 46.0977C529.344 46.1402 529.141 46.1778 528.935 46.2109C529.245 46.1613 529.546 46.1012 529.839 46.0303L529.543 46.0977ZM529.496 32.3584C526.706 32.3584 524.795 32.7568 523.718 33.5146L523.714 33.5176C522.641 34.2327 522.105 35.2584 522.105 36.6191L522.111 36.832C522.164 37.882 522.615 38.715 523.467 39.3467C524.427 39.9858 525.763 40.3164 527.493 40.3164C529.051 40.3164 530.394 39.9677 531.529 39.2783C532.67 38.5854 533.544 37.6707 534.154 36.5322L534.156 36.5273C534.807 35.389 535.134 34.1063 535.134 32.6748V32.3584H529.496ZM533.784 22.2988C533.828 22.3678 533.872 22.438 533.914 22.5098C533.83 22.3662 533.742 22.2282 533.648 22.0957L533.784 22.2988Z" fill="#4B3928"/>
<path d="M165.934 36.9707L179.769 1.62793H187.931L170.111 45.7031L170.064 45.8184H161.865L161.819 45.7031L144 1.62793H152.1L165.934 36.9707Z" fill="#4B3928"/>
<path fill-rule="evenodd" clip-rule="evenodd" d="M291.464 21.0898H291.28C289.378 21.0898 287.581 21.3591 285.89 21.8955L285.887 21.8965C284.246 22.3886 282.921 23.2064 281.902 24.3467C280.896 25.4743 280.384 26.9713 280.384 28.8564V45.8184H273.003V14.1484H280.384V19.3789C281.564 17.7688 282.998 16.5317 284.686 15.6709C286.797 14.5732 288.996 14.0234 291.28 14.0234H291.464V21.0898ZM290.564 20.9189C289.854 20.9444 289.159 21.0077 288.479 21.1094L289.165 21.0205C289.855 20.9443 290.561 20.9062 291.28 20.9062L290.564 20.9189Z" fill="#4B3928"/>
<path fill-rule="evenodd" clip-rule="evenodd" d="M341.343 13.3965C343.87 13.3965 346.031 13.9027 347.817 14.9229C349.651 15.9462 351.033 17.5435 351.965 19.7021C352.94 21.8216 353.422 24.5841 353.422 27.9795V45.8184H346.041V29.6074C346.041 27.2691 345.785 25.4617 345.284 24.1729L345.181 23.9219L345.178 23.916C344.68 22.6533 343.975 21.7655 343.069 21.2334L342.886 21.1318L342.883 21.1309C342.034 20.6713 341.042 20.4097 339.9 20.3516L339.402 20.3389H339.398C337.109 20.2981 335.351 21.0525 334.099 22.5879C332.842 24.1289 332.199 26.3559 332.199 29.2949V45.8184H324.819V14.1484H331.748L331.761 14.3184L332.051 18.1309C332.834 16.9826 333.767 16.0398 334.854 15.3066C336.683 14.0315 338.849 13.3965 341.343 13.3965ZM334.957 15.459C335.63 14.9894 336.35 14.6079 337.117 14.3145C336.606 14.5101 336.115 14.7446 335.646 15.0186C335.411 15.1555 335.181 15.3025 334.957 15.459Z" fill="#4B3928"/>
<path fill-rule="evenodd" clip-rule="evenodd" d="M418.975 13.3965C421.502 13.3965 423.664 13.9025 425.45 14.9229C427.284 15.9462 428.665 17.5434 429.597 19.7021C430.572 21.8216 431.054 24.5841 431.054 27.9795V45.8184H423.673V29.6074C423.673 27.269 423.417 25.4618 422.916 24.1729L422.812 23.9219L422.81 23.916C422.312 22.6532 421.607 21.7655 420.701 21.2334L420.518 21.1318L420.515 21.1309C419.666 20.6713 418.674 20.4097 417.532 20.3516L417.034 20.3389H417.031C414.742 20.298 412.983 21.0524 411.73 22.5879C410.473 24.1289 409.831 26.3559 409.831 29.2949V45.8184H402.451V14.1484H409.38L409.393 14.3184L409.683 18.1309C410.466 16.9826 411.399 16.0398 412.486 15.3066C414.315 14.0315 416.481 13.3965 418.975 13.3965ZM420.603 20.9688L420.412 20.8701C420.366 20.8474 420.32 20.8254 420.273 20.8037C420.385 20.8557 420.495 20.9105 420.603 20.9688Z" fill="#4B3928"/>
<path d="M513.155 8.63281H493.186V20.5332H510.276V27.5381H493.186V45.8184H485.555V1.62793H513.155V8.63281Z" fill="#4B3928"/>
<path fill-rule="evenodd" clip-rule="evenodd" d="M583.173 13.3965C586.846 13.3965 589.697 14.5814 591.7 16.9668C593.703 19.3108 594.668 22.9111 594.626 27.7295V45.8184H587.308V29.6074C587.308 27.2683 587.069 25.4595 586.604 24.1689L586.508 23.918L586.507 23.916C586.007 22.6469 585.353 21.7588 584.555 21.2285L584.394 21.127C583.618 20.6688 582.732 20.4093 581.73 20.3516L581.295 20.3389H581.291C579.174 20.2982 577.541 21.0484 576.37 22.583C575.235 24.1248 574.655 26.3541 574.655 29.2949V45.8184H567.275V29.6074C567.275 27.2684 567.037 25.4595 566.571 24.1689L566.475 23.918L566.473 23.9111C565.981 22.5591 565.293 21.6409 564.423 21.127C563.537 20.6035 562.506 20.3389 561.324 20.3389H561.321C559.204 20.2981 557.572 21.0484 556.4 22.583C555.266 24.1248 554.686 26.3539 554.686 29.2949V45.8184H547.305V14.1484H554.233L554.517 17.9512C555.444 16.5341 556.598 15.4392 557.979 14.6719C559.512 13.8203 561.255 13.3965 563.202 13.3965C565.734 13.3965 567.899 13.9668 569.688 15.1162C571.366 16.1954 572.609 17.7964 573.421 19.9062C574.337 17.8752 575.59 16.2985 577.183 15.1836C578.886 13.991 580.886 13.3965 583.173 13.3965ZM573.571 20.0215C573.515 20.1476 573.46 20.2756 573.406 20.4053C573.464 20.267 573.523 20.1303 573.583 19.9961L573.571 20.0215Z" fill="#4B3928"/>
<path d="M607.287 45.8184H599.97V14.1484H607.287V45.8184Z" fill="#4B3928"/>
<path d="M620.685 45.8184H613.304V1.62793H620.685V45.8184Z" fill="#4B3928"/>
<path fill-rule="evenodd" clip-rule="evenodd" d="M603.66 0C604.835 8.9028e-05 605.842 0.415606 606.67 1.24316L606.669 1.24414C607.537 2.07048 607.976 3.07677 607.976 4.25391L607.971 4.47266C607.919 5.55953 607.483 6.51294 606.67 7.32617C605.842 8.15382 604.835 8.56925 603.66 8.56934C602.558 8.56934 601.587 8.20474 600.755 7.47949L600.591 7.3291L600.584 7.32324C599.759 6.45518 599.344 5.42901 599.344 4.25391C599.344 3.07842 599.759 2.0709 600.587 1.24316L600.591 1.24023C601.459 0.415598 602.485 0 603.66 0ZM607.771 4.66895C607.759 4.80172 607.739 4.9321 607.714 5.06055C607.752 4.86616 607.777 4.66718 607.787 4.46289L607.771 4.66895ZM607.615 3.05664C607.712 3.36535 607.768 3.68985 607.785 4.03027C607.778 3.89701 607.767 3.7661 607.748 3.6377C607.738 3.5713 607.727 3.50553 607.714 3.44043C607.688 3.30983 607.654 3.18201 607.615 3.05664Z" fill="#4B3928"/>
</svg>
