<svg width="26" height="26" viewBox="0 0 26 26" fill="none" xmlns="http://www.w3.org/2000/svg">
<g clip-path="url(#clip0_310_18048)">
<path d="M18.4718 23.8954H1.94141V6.96605L6.80276 2.10468H18.4718V5.54917H16.8432V4.54758C16.8432 4.09971 16.4767 3.73328 16.0289 3.73328H8.76526C8.31739 3.73328 7.95095 4.09971 7.95095 4.54758V7.70707C7.95095 7.93507 7.77181 8.11422 7.5438 8.11422H4.38431C3.93644 8.11422 3.57001 8.48066 3.57001 8.92852V20.801C3.57001 21.6072 4.22963 22.2668 5.03579 22.2668H15.3774C16.1835 22.2668 16.8432 21.6072 16.8432 20.801V19.5714H18.4718V23.8954ZM4.72635 6.48562H6.3305V4.88144L4.72635 6.48562ZM22.9015 19.3679L20.4586 16.925C20.2143 16.6807 19.8235 16.6074 19.5222 16.7784C17.5924 17.8451 15.0923 17.5113 13.5207 15.7768C11.8189 13.8958 11.8677 10.891 13.6348 9.0751C15.5402 7.11263 18.6916 7.0882 20.6215 9.01809C22.1931 10.5897 22.4699 12.9756 21.4602 14.8322C21.2892 15.1416 21.3625 15.5244 21.6068 15.7687L24.0579 18.2197L22.9097 19.3679H22.9015ZM17.1444 9.20538C16.037 9.20538 14.9295 9.75911 14.2862 10.8747C13.7162 11.8519 13.7162 13.1059 14.2862 14.083C15.581 16.3142 18.7242 16.3061 20.0108 14.0749C20.5727 13.0977 20.5727 11.8519 20.0108 10.8747C19.3594 9.76725 18.26 9.21353 17.1526 9.21353L17.1444 9.20538Z" fill="#4B3928"/>
</g>
<defs>
<clipPath id="clip0_310_18048">
<rect width="26" height="26" rx="1.56" fill="white"/>
</clipPath>
</defs>
</svg>
