<svg width="32" height="32" viewBox="0 0 32 32" fill="none" xmlns="http://www.w3.org/2000/svg">
<g clip-path="url(#clip0_310_18430)">
<path d="M3.96289 27.4804V4.51959H28.0362V23.0706H11.67L3.96289 27.4704V27.4804ZM5.96732 8.32802V23.1608C5.96732 23.5417 6.37823 23.7822 6.71899 23.5918L10.7178 21.3067C10.9984 21.1464 11.3092 21.0662 11.6299 21.0662H24.2377C25.2299 21.0662 26.0418 20.2544 26.0418 19.2622V8.32802C26.0418 7.33582 25.2299 6.52403 24.2377 6.52403H7.7814C6.7892 6.52403 5.97736 7.33582 5.97736 8.32802H5.96732ZM20.1387 14.8023C19.3369 14.8023 18.6755 14.1509 18.6755 13.3391C18.6755 12.5273 19.3269 11.8759 20.1387 11.8759C20.9505 11.8759 21.6019 12.5273 21.6019 13.3391C21.6019 14.1509 20.9505 14.8023 20.1387 14.8023ZM15.9995 14.8023C15.1978 14.8023 14.5363 14.1509 14.5363 13.3391C14.5363 12.5273 15.1877 11.8759 15.9995 11.8759C16.8113 11.8759 17.4627 12.5273 17.4627 13.3391C17.4627 14.1509 16.8113 14.8023 15.9995 14.8023ZM11.8604 14.8023C11.0586 14.8023 10.3972 14.1509 10.3972 13.3391C10.3972 12.5273 11.0486 11.8759 11.8604 11.8759C12.6722 11.8759 13.3236 12.5273 13.3236 13.3391C13.3236 14.1509 12.6722 14.8023 11.8604 14.8023Z" fill="#4B3928"/>
</g>
<defs>
<clipPath id="clip0_310_18430">
<rect width="32" height="32" rx="1.92" fill="white"/>
</clipPath>
</defs>
</svg>
