<svg width="30" height="30" viewBox="0 0 30 30" fill="none" xmlns="http://www.w3.org/2000/svg">
<path d="M23.6823 29.7263H15.2617C15.2617 26.2439 18.0914 23.4159 21.5771 23.4159H29.9977C29.9977 26.8982 27.1679 29.7263 23.6823 29.7263Z" fill="#3E3A36"/>
<path d="M21.5791 16.5784H27.8945C27.8945 20.0607 25.0648 22.8887 21.5791 22.8887H15.2637C15.2637 19.4064 18.0934 16.5784 21.5791 16.5784Z" fill="#3E3A36"/>
<path d="M19.472 16.0529H15.2617C15.2617 12.5706 18.0914 9.74255 21.5771 9.74255H25.7874C25.7874 13.2249 22.9577 16.0529 19.472 16.0529Z" fill="#3E3A36"/>
<path d="M0 23.4159H8.42053C11.9062 23.4159 14.7359 26.2439 14.7359 29.7263H6.3154C2.82971 29.7263 0 26.8982 0 23.4159Z" fill="#3E3A36"/>
<path d="M14.7363 22.8887H8.42087C4.93518 22.8887 2.10547 20.0607 2.10547 16.5784H8.42087C11.9066 16.5784 14.7363 19.4064 14.7363 22.8887Z" fill="#3E3A36"/>
<path d="M4.20898 9.74084H8.41925C11.9049 9.74084 14.7347 12.5689 14.7347 16.0512H10.5244C7.0387 16.0512 4.20898 13.2232 4.20898 9.74084Z" fill="#3E3A36"/>
<path d="M14.9751 0L12.6189 2.56699C11.1296 4.19186 11.1296 6.68522 12.6189 8.31009L14.9751 10.8771L17.3312 8.31009C18.8206 6.68522 18.8206 4.19186 17.3312 2.56699L14.9751 0Z" fill="#3E3A36"/>
</svg>
