<svg width="26" height="26" viewBox="0 0 26 26" fill="none" xmlns="http://www.w3.org/2000/svg">
<g clip-path="url(#clip0_3208_2439)">
<path d="M13.0082 24.5427L12.4544 24.0379C12.1042 23.7203 3.93683 16.1473 3.93683 10.5204C3.93683 5.26821 7.74776 1.45728 13 1.45728C18.2523 1.45728 22.0632 5.26821 22.0632 10.5204C22.0632 16.1554 13.8958 23.7203 13.5456 24.0379L12.9919 24.5427H13.0082ZM13.0082 3.07774C8.62722 3.07774 5.57358 6.13951 5.57358 10.5123C5.57358 14.0301 9.62063 18.7856 11.9577 21.2285C12.5358 21.8311 13.4968 21.8311 14.0668 21.2285C16.4038 18.7856 20.4509 14.0301 20.4509 10.5123C20.4509 6.13137 17.3891 3.07774 13.0163 3.07774H13.0082ZM13.8551 12.9959C11.4773 13.6229 9.36012 11.5058 9.98713 9.13614C10.264 8.09383 11.1108 7.24696 12.1531 6.9701C14.5309 6.34308 16.648 8.46027 16.021 10.8299C15.7442 11.8722 14.8974 12.7191 13.8551 12.9959ZM13.0082 8.4847C12.1857 8.4847 11.5099 9.16057 11.5099 9.98301C11.5099 10.8055 12.1857 11.4813 13.0082 11.4813C13.8306 11.4813 14.5064 10.8055 14.5064 9.98301C14.5064 9.16057 13.8306 8.4847 13.0082 8.4847Z" fill="#4B3928"/>
</g>
<defs>
<clipPath id="clip0_3208_2439">
<rect width="26" height="26" rx="1.56" fill="white"/>
</clipPath>
</defs>
</svg>
