<svg width="22" height="22" viewBox="0 0 22 22" fill="none" xmlns="http://www.w3.org/2000/svg">
<path d="M16.4536 20.6118H13.8284V16.6844H17.7559V18.8755L16.4536 20.6118ZM15.2064 19.2338H15.7646L16.3778 18.4207V18.0625H15.2064V19.2338ZM17.5284 15.8507H14.2074L12.1816 13.4667L10.0525 12.3987L3.86512 15.1479L1.64648 6.27324L6.64191 2.34581H9.39111L12.2575 5.21215H12.8224L14.731 1.38806H17.5491L20.3535 9.09824L17.5215 15.8369L17.5284 15.8507ZM15.1582 14.4726H16.1504C16.426 14.4726 16.681 14.3073 16.7843 14.0523L18.7687 9.32562C18.8376 9.16715 18.8376 8.988 18.7825 8.82263L16.7498 3.23465C16.6534 2.95904 16.3916 2.77989 16.1022 2.77989H16.0057C15.7439 2.77989 15.5027 2.92459 15.3925 3.15885L13.7664 6.41105C13.7113 6.52818 13.5873 6.60398 13.4564 6.60398H11.8303C11.7407 6.60398 11.6511 6.56952 11.5891 6.50062L9.02591 3.93745C8.89499 3.80654 8.72276 3.73763 8.53673 3.73763H7.35844C7.20685 3.73763 7.05527 3.79276 6.93125 3.88233L3.5482 6.54196C3.3346 6.70733 3.23807 6.98983 3.30697 7.25166L4.60234 12.44C4.7057 12.8534 5.16045 13.0739 5.5532 12.9017L9.93547 10.9517C10.0319 10.9104 10.1352 10.9104 10.2317 10.9517L12.9878 12.3298C13.0291 12.3504 13.0636 12.378 13.0981 12.4125L14.6415 14.2246C14.7724 14.3762 14.9653 14.4657 15.1651 14.4657L15.1582 14.4726Z" fill="#4B3928"/>
</svg>
