<svg width="22" height="22" viewBox="0 0 22 22" fill="none" xmlns="http://www.w3.org/2000/svg">
<path d="M18.7628 19.7229L14.6011 15.5612C14.1877 15.1478 13.5469 15.0927 13.0508 15.4028C11.9484 16.078 10.6737 16.4432 9.35077 16.4432C7.45595 16.4432 5.67826 15.7059 4.34155 14.3692C3.00484 13.0325 2.26758 11.2548 2.26758 9.36002C2.26758 7.46521 3.00484 5.68753 4.34155 4.35082C5.67826 3.01411 7.45595 2.27686 9.35077 2.27686C11.2456 2.27686 13.0232 3.01411 14.3599 4.35082C16.7164 6.70728 17.0609 10.3178 15.4004 13.0463C15.0972 13.5424 15.1592 14.1694 15.5657 14.5828L19.7344 18.7514L18.7628 19.7229ZM9.35077 3.6549C7.82802 3.6549 6.39486 4.24747 5.3131 5.32923C4.23133 6.411 3.63873 7.83728 3.63873 9.36692C3.63873 10.8965 4.23133 12.3228 5.3131 13.4046C6.39486 14.4864 7.82113 15.0789 9.35077 15.0789C10.8804 15.0789 12.3067 14.4864 13.3884 13.4046C14.4633 12.3297 15.0628 10.8965 15.0628 9.36692C15.0628 7.83728 14.4702 6.411 13.3884 5.32923C12.3136 4.25436 10.8804 3.6549 9.35077 3.6549Z" fill="#4B3928"/>
</svg>
