<svg width="22" height="22" viewBox="0 0 22 22" fill="none" xmlns="http://www.w3.org/2000/svg">
<path d="M17.3623 19.2569H2.75977V4.65441H11.8485V6.02941H5.37227C4.69164 6.02941 4.13477 6.58629 4.13477 7.26691V16.6444C4.13477 17.325 4.69164 17.8819 5.37227 17.8819H14.7498C15.4304 17.8819 15.9873 17.325 15.9873 16.6444V10.0857H17.3623V19.2569ZM10.2535 12.7257L9.28414 11.7563L16.3241 4.71629C16.5373 4.50316 16.386 4.13191 16.0835 4.13191L13.1616 4.11816V2.74316L19.2185 2.76379L19.2391 8.81379H17.8641L17.8504 5.95379C17.8504 5.65129 17.4791 5.49316 17.266 5.71316L10.2604 12.7188L10.2535 12.7257Z" fill="#4B3928"/>
</svg>
