<svg width="22" height="22" viewBox="0 0 22 22" fill="none" xmlns="http://www.w3.org/2000/svg">
<path d="M11.0002 19.9436C6.06675 19.9436 2.05664 15.9335 2.05664 11.0001C2.05664 6.06664 6.06675 2.05652 11.0002 2.05652C15.9336 2.05652 19.9437 6.06664 19.9437 11.0001C19.9437 15.9335 15.9336 19.9436 11.0002 19.9436ZM11.0002 3.42768C6.82468 3.42768 3.43469 6.82457 3.43469 10.9932C3.43469 15.1618 6.83157 18.5587 11.0002 18.5587C15.1688 18.5587 18.5656 15.1618 18.5656 10.9932C18.5656 6.82457 15.1688 3.42768 11.0002 3.42768ZM14.2385 14.6588L10.3042 11.2826V6.5214H11.6823V10.6487L15.1412 13.6115L14.2454 14.6588H14.2385Z" fill="#4B3928"/>
</svg>
