<svg width="22" height="22" viewBox="0 0 22 22" fill="none" xmlns="http://www.w3.org/2000/svg">
<path d="M15.4719 17.3838H0.699219V4.61621H15.4719V10.1491L21.301 6.05627V16.3296L15.4719 11.8923V17.3769V17.3838ZM3.31746 16.0058H12.8535C13.5357 16.0058 14.0938 15.4477 14.0938 14.7655V7.2345C14.0938 6.55237 13.5357 5.99426 12.8535 5.99426H3.31746C2.63533 5.99426 2.07727 6.55237 2.07727 7.2345V14.7655C2.07727 15.4477 2.63533 16.0058 3.31746 16.0058ZM16.9877 11.3204L19.3718 13.1326C19.5991 13.3048 19.9229 13.1463 19.9229 12.8569V9.37737C19.9229 9.10176 19.606 8.93639 19.3787 9.09487L16.9946 10.7692C16.8016 10.9001 16.8017 11.1826 16.9809 11.3273L16.9877 11.3204Z" fill="#4B3928"/>
</svg>
