<svg width="22" height="22" viewBox="0 0 22 22" fill="none" xmlns="http://www.w3.org/2000/svg">
<path d="M16.2299 18.7861H2.05664V17.9937V3.21411H8.28545L10.8624 5.79106H17.7182V8.36801H19.9438L16.2299 18.7723V18.7861ZM4.59229 17.408H14.3833C14.907 17.408 15.3755 17.0773 15.5547 16.5881L17.6631 10.6831C17.8215 10.2353 17.4908 9.75984 17.0154 9.75984H6.86602C6.3148 9.75984 5.83249 10.1181 5.67402 10.6487L3.93085 16.5261C3.79994 16.967 4.13064 17.408 4.59229 17.408ZM3.43469 5.83929V13.3497L4.90921 8.38179H15.9956C16.1885 8.38179 16.3401 8.23021 16.3401 8.03728V7.5274C16.3401 7.33448 16.1885 7.18289 15.9956 7.18289H10.4352C10.3456 7.18289 10.2561 7.14844 10.1941 7.07954L7.81687 4.7024C7.75486 4.64039 7.66531 4.59905 7.57573 4.59905H4.67497C3.99283 4.59905 3.43469 5.15716 3.43469 5.83929Z" fill="#4B3928"/>
</svg>
