<svg width="22" height="22" viewBox="0 0 22 22" fill="none" xmlns="http://www.w3.org/2000/svg">
<path d="M5.33686 17.7011L9.69548 13.3424C10.0433 12.9946 10.5107 12.799 10.9998 12.799C11.4889 12.799 11.9563 12.9892 12.3042 13.3424L16.6628 17.7011L17.7008 16.663L13.3422 12.3044C12.9944 11.9566 12.7987 11.4892 12.7987 11.0001C12.7987 10.5109 12.9889 10.0436 13.3422 9.69573L17.7008 5.3371L16.6628 4.29907L12.3042 8.6577C11.9563 9.00553 11.4889 9.20117 10.9998 9.20117C10.5107 9.20117 10.0433 9.01096 9.69548 8.6577L5.33686 4.29907L4.29883 5.3371L8.65747 9.69573C9.00529 10.0436 9.20094 10.5109 9.20094 11.0001C9.20094 11.4892 9.01073 11.9566 8.65747 12.3044L4.29883 16.663L5.33686 17.7011Z" fill="#4B3928"/>
</svg>
