<svg width="26" height="26" viewBox="0 0 26 26" fill="none" xmlns="http://www.w3.org/2000/svg">
<path d="M22.1731 23.309L17.2547 18.3906C16.7661 17.9021 16.0088 17.8369 15.4226 18.2034C14.1197 19.0014 12.6132 19.433 11.0498 19.433C8.81043 19.433 6.70951 18.5617 5.12977 16.9819C3.55003 15.4022 2.67871 13.3013 2.67871 11.0619C2.67871 8.82261 3.55003 6.72171 5.12977 5.14197C6.70951 3.56222 8.81043 2.69092 11.0498 2.69092C13.2891 2.69092 15.3899 3.56222 16.9697 5.14197C19.7546 7.92688 20.1618 12.1938 18.1993 15.4184C17.841 16.0047 17.9143 16.7458 18.3947 17.2343L23.3213 22.1609L22.1731 23.309ZM11.0498 4.31952C9.25015 4.31952 7.55642 5.01982 6.27796 6.29827C4.99951 7.57673 4.29917 9.26233 4.29917 11.0701C4.29917 12.8778 4.99951 14.5634 6.27796 15.8419C7.55642 17.1203 9.24201 17.8206 11.0498 17.8206C12.8575 17.8206 14.5431 17.1203 15.8216 15.8419C17.0919 14.5716 17.8003 12.8778 17.8003 11.0701C17.8003 9.26233 17.1 7.57673 15.8216 6.29827C14.5512 5.02796 12.8575 4.31952 11.0498 4.31952Z" fill="#4B3928"/>
</svg>
