<svg width="22" height="22" viewBox="0 0 22 22" fill="none" xmlns="http://www.w3.org/2000/svg">
<path d="M14.303 19.5102H7.69785C4.82637 19.5102 2.49023 17.1741 2.49023 14.3026V7.69748C2.49023 4.826 4.82637 2.48987 7.69785 2.48987H14.303C17.1745 2.48987 19.5106 4.826 19.5106 7.69748V14.3026C19.5106 17.1741 17.1745 19.5102 14.303 19.5102ZM7.6909 3.81089C5.54945 3.81089 3.80431 5.55604 3.80431 7.69748V14.3026C3.80431 16.4441 5.54945 18.1892 7.6909 18.1892H14.296C16.4375 18.1892 18.1826 16.4441 18.1826 14.3026V7.69748C18.1826 5.55604 16.4375 3.81089 14.296 3.81089H7.6909ZM11.0004 15.3108C8.62257 15.3108 6.68275 13.3779 6.68275 11C6.68275 8.6222 8.61562 6.68238 11.0004 6.68238C13.3852 6.68238 15.3181 8.61525 15.3181 11C15.3181 13.3848 13.3852 15.3108 11.0004 15.3108ZM11.0004 8.01036C9.35261 8.01036 8.01073 9.35224 8.01073 11.007C8.01073 12.6618 9.35261 13.9967 11.0004 13.9967C12.6482 13.9967 13.9901 12.6548 13.9901 11.007C13.9901 9.35919 12.6482 8.01036 11.0004 8.01036Z" fill="#4B3928"/>
<path d="M15.3328 7.2317C15.7744 7.2317 16.1323 6.87372 16.1323 6.43214C16.1323 5.99055 15.7744 5.63257 15.3328 5.63257C14.8912 5.63257 14.5332 5.99055 14.5332 6.43214C14.5332 6.87372 14.8912 7.2317 15.3328 7.2317Z" fill="#4B3928"/>
</svg>
