<svg width="22" height="22" viewBox="0 0 22 22" fill="none" xmlns="http://www.w3.org/2000/svg">
<path d="M16.5479 4.19678C18.7727 4.19678 20.5879 6.00498 20.5879 8.23682V13.7642C20.5877 15.9889 18.7796 17.8032 16.5479 17.8032H5.45215C3.22739 17.8032 1.41232 15.9958 1.41211 13.7642V8.23682C1.41211 6.01193 3.22031 4.19678 5.45215 4.19678H16.5479ZM5.45215 5.51807C3.9573 5.51807 2.7334 6.73502 2.7334 8.23682V13.7642C2.73361 15.2588 3.95048 16.4819 5.45215 16.4819H16.5479C18.0495 16.4819 19.2664 15.2658 19.2666 13.7642V8.23682C19.2666 6.74197 18.0496 5.51807 16.5479 5.51807H5.45215ZM15.0537 10.8784L7.63574 15.1821V6.85986L15.0537 10.8784ZM9.4707 9.35596C9.24126 9.23081 8.95605 9.39742 8.95605 9.66162V12.2827C8.95605 12.5469 9.24811 12.7136 9.47754 12.5815L11.8135 11.2261C12.0499 11.094 12.043 10.7527 11.8066 10.6206L9.4707 9.35596Z" fill="#4B3928"/>
</svg>
