<svg width="22" height="22" viewBox="0 0 22 22" fill="none" xmlns="http://www.w3.org/2000/svg">
  <path d="M7.5625 2.75H14.4375C17.0964 2.75 19.25 4.90363 19.25 7.5625V14.4375C19.25 17.0964 17.0964 19.25 14.4375 19.25H7.5625C4.90363 19.25 2.75 17.0964 2.75 14.4375V7.5625C2.75 4.90363 4.90363 2.75 7.5625 2.75ZM7.5625 4.125C5.66337 4.125 4.125 5.66337 4.125 7.5625V14.4375C4.125 16.3366 5.66337 17.875 7.5625 17.875H14.4375C16.3366 17.875 17.875 16.3366 17.875 14.4375V7.5625C17.875 5.66337 16.3366 4.125 14.4375 4.125H7.5625ZM11 7.5625C12.898 7.5625 14.4375 9.10202 14.4375 11C14.4375 12.898 12.898 14.4375 11 14.4375C9.10202 14.4375 7.5625 12.898 7.5625 11C7.5625 9.10202 9.10202 7.5625 11 7.5625ZM11 8.9375C9.86112 8.9375 8.9375 9.86112 8.9375 11C8.9375 12.1389 9.86112 13.0625 11 13.0625C12.1389 13.0625 13.0625 12.1389 13.0625 11C13.0625 9.86112 12.1389 8.9375 11 8.9375ZM14.7812 6.53125C15.3507 6.53125 15.8125 6.99306 15.8125 7.5625C15.8125 8.13194 15.3507 8.59375 14.7812 8.59375C14.2118 8.59375 13.75 8.13194 13.75 7.5625C13.75 6.99306 14.2118 6.53125 14.7812 6.53125Z" fill="currentColor"/>
</svg>
