<svg width="22" height="22" viewBox="0 0 22 22" fill="none" xmlns="http://www.w3.org/2000/svg">
<path d="M13.1874 20.0317H8.3344V12.7452H5.81055V7.98947H8.3344V6.75188C8.3344 3.8943 10.2117 1.96838 13.0136 1.96838H16.191L16.1841 6.52939H13.7228C13.3334 6.52939 13.243 6.59892 13.243 6.59892C13.243 6.59892 13.1944 6.68235 13.1944 7.03695V7.98947H16.0867V12.7452H13.1944V20.0317H13.1874ZM10.0031 18.7106H11.5188C11.7135 18.7106 11.8664 18.5577 11.8664 18.363V11.7718C11.8664 11.5771 12.0263 11.4241 12.2141 11.4241H14.4181C14.6127 11.4241 14.7657 11.2712 14.7657 11.0765V9.65814C14.7657 9.46346 14.6058 9.3105 14.4181 9.3105H12.2141C12.0194 9.3105 11.8664 9.15754 11.8664 8.96286V7.03695C11.8664 6.25128 12.0611 5.20837 13.7228 5.20837H14.5154C14.7101 5.20837 14.8631 5.05541 14.8631 4.86073V3.63705C14.8631 3.44237 14.7101 3.28941 14.5154 3.28941H13.0067C10.9347 3.28941 9.64848 4.61739 9.64848 6.75188V8.96286C9.64848 9.15754 9.49552 9.3105 9.30085 9.3105H7.47227C7.27759 9.3105 7.12463 9.46346 7.12463 9.65814V11.0765C7.12463 11.2712 7.27759 11.4241 7.47227 11.4241H9.30085C9.49552 11.4241 9.64848 11.5771 9.64848 11.7718V18.363C9.64848 18.5577 9.80144 18.7106 9.99612 18.7106H10.0031Z" fill="#4B3928"/>
</svg>
