<svg width="22" height="22" viewBox="0 0 22 22" fill="none" xmlns="http://www.w3.org/2000/svg">
  <path d="M19.0304 6.21495C18.837 5.4862 18.267 4.91232 17.5429 4.71753C16.2305 4.36328 11 4.36328 11 4.36328C11 4.36328 5.7695 4.36328 4.45708 4.71753C3.733 4.91232 3.163 5.4862 2.96958 6.21495C2.61719 7.53437 2.61719 10.2852 2.61719 10.2852C2.61719 10.2852 2.61719 13.036 2.96958 14.3554C3.163 15.0842 3.733 15.6581 4.45708 15.8529C5.7695 16.2071 11 16.2071 11 16.2071C11 16.2071 16.2305 16.2071 17.5429 15.8529C18.267 15.6581 18.837 15.0842 19.0304 14.3554C19.3828 13.036 19.3828 10.2852 19.3828 10.2852C19.3828 10.2852 19.3828 7.53437 19.0304 6.21495ZM9.28437 12.7906V7.77974L13.6538 10.2852L9.28437 12.7906Z" fill="currentColor"/>
</svg>
